# xmcd CD database file
#
# Track frame offsets:
#	150
#	15007
#	30761
#	47333
#	63797
#	80729
#	98759
#	112784
#	125161
#	144601
#	160085
#	178573
#	195558
#	213260
#
# Disc length: 3078 seconds
#
# Revision: 2
# Processed by: cddbd v1.5.2PL0 Copyright (c) Steve Scherf et al.
# Submitted via: CDex 1.51
#
DISCID=a20c040e
DTITLE=Monrose - Strictly Physical (MM Edition)
DYEAR=2007
DGENRE=Blues
TTITLE0=Dangerous
TTITLE1=Hot Summer
TTITLE2=Strictly Physical
TTITLE3=Rebound
TTITLE4=What You Don't Know
TTITLE5=Leading Me On
TTITLE6=Golden
TTITLE7=Sooner Or Later
TTITLE8=Just Like That
TTITLE9=Yesterday's Gone
TTITLE10=Burning
TTITLE11=Monrose Theme
TTITLE12=Everybody Makes Mistakes
TTITLE13=Say Yes (Bonus)
EXTD=YEAR: 2007
EXTT0=
EXTT1=
EXTT2=
EXTT3=
EXTT4=
EXTT5=
EXTT6=
EXTT7=
EXTT8=
EXTT9=
EXTT10=
EXTT11=
EXTT12=
EXTT13=
PLAYORDER=
